<?xml version="1.0" standalone="no"?>
<!DOCTYPE svg PUBLIC "-//W3C//DTD SVG 20010904//EN"
 "http://www.w3.org/TR/2001/REC-SVG-20010904/DTD/svg10.dtd">
<svg version="1.0" xmlns="http://www.w3.org/2000/svg"
 width="1280.000000pt" height="1280.000000pt" viewBox="0 0 1280.000000 1280.000000"
 preserveAspectRatio="xMidYMid meet">
<g transform="translate(0.000000,1280.000000) scale(0.100000,-0.100000)"
fill="#fff8d4" stroke="none">
<path d="M7390 11493 c-70 -23 -95 -62 -86 -137 3 -28 21 -118 41 -200 43
-185 77 -386 73 -429 -3 -30 -11 -21 -128 141 -186 260 -289 362 -363 362 -89
0 -157 -195 -157 -448 0 -330 105 -642 412 -1222 153 -291 168 -325 168 -391
0 -151 -77 -527 -139 -684 -64 -160 -161 -284 -254 -325 -23 -10 -168 -39
-322 -65 -841 -139 -1501 -346 -2150 -675 -421 -214 -687 -397 -959 -660 -430
-417 -694 -891 -925 -1660 -186 -617 -251 -941 -251 -1244 l0 -88 -53 -58
c-72 -77 -151 -233 -167 -330 -37 -221 92 -455 341 -620 47 -31 111 -67 142
-79 49 -20 64 -33 104 -90 57 -80 183 -212 240 -252 126 -88 367 -150 703
-183 192 -19 338 -26 745 -35 l341 -8 299 -101 c475 -161 455 -157 800 -157
311 0 369 6 457 51 65 33 78 55 78 135 0 127 -53 274 -145 405 -54 75 -183
197 -264 250 -33 21 -61 41 -61 45 0 3 35 25 78 49 303 170 632 363 712 418
112 76 216 162 395 326 221 202 292 234 370 165 70 -61 110 -180 185 -539 72
-348 105 -447 175 -530 58 -69 105 -142 190 -295 175 -315 252 -433 337 -516
92 -89 160 -110 348 -110 331 0 663 102 726 222 22 43 29 128 14 173 -8 24
-52 80 -126 158 -88 93 -123 138 -149 192 -101 211 -175 576 -175 866 0 160
16 260 58 357 150 347 405 1473 456 2018 4 33 13 175 21 315 33 537 80 774
242 1217 l45 122 65 30 c147 69 297 198 386 333 101 154 166 344 174 509 5 95
2 117 -21 200 -53 184 -201 451 -424 763 -171 240 -294 352 -490 451 -171 85
-339 132 -737 205 -259 47 -237 37 -264 122 -79 247 -354 772 -573 1095 -154
226 -283 368 -383 422 -38 20 -116 27 -155 14z"/>
</g>
</svg>
